<svg xmlns="http://www.w3.org/2000/svg" width="36" height="36" viewBox="0 0 36 36">
  <g id="Group_13858" data-name="Group 13858" transform="translate(-370 -26)">
    <g id="Ellipse_2153" data-name="Ellipse 2153" transform="translate(370 26)" fill="none" stroke="#fff" stroke-width="2">
      <circle cx="18" cy="18" r="18" stroke="none"/>
      <circle cx="18" cy="18" r="17" fill="none"/>
    </g>
    <g id="Group_13857" data-name="Group 13857" transform="translate(-1956.707 373.27)">
      <path id="Path_44061" data-name="Path 44061" d="M2352.991-332.69v7.23c-.013.084-.031.169-.037.254a4.44,4.44,0,0,1-3.312,4.034,11.277,11.277,0,0,1-1.167.184h-7.132c-.118-.014-.234-.033-.352-.041a4.438,4.438,0,0,1-4.116-4.13c-.053-1.139-.024-2.282-.025-3.423,0-1.427-.037-2.855.017-4.279a4.416,4.416,0,0,1,4.425-4.267q3.612-.026,7.225,0a4.429,4.429,0,0,1,4.3,3.345A10.9,10.9,0,0,1,2352.991-332.69Zm-8.1,8.089a4.467,4.467,0,0,0,4.487-4.456,4.465,4.465,0,0,0-4.448-4.494,4.465,4.465,0,0,0-4.5,4.467A4.468,4.468,0,0,0,2344.894-324.6Zm5.393-8.952a.908.908,0,0,0,.89-.9.907.907,0,0,0-.916-.9.907.907,0,0,0-.878.91A.907.907,0,0,0,2350.288-333.552Z" transform="translate(0 0)" fill="#fff"/>
      <path id="Path_44062" data-name="Path 44062" d="M2346.23-325.061a2.68,2.68,0,0,1,2.678-2.695,2.682,2.682,0,0,1,2.69,2.659,2.685,2.685,0,0,1-2.667,2.708A2.682,2.682,0,0,1,2346.23-325.061Z" transform="translate(-4.006 -4.002)" fill="#fff"/>
    </g>
  </g>
</svg>
