<svg xmlns="http://www.w3.org/2000/svg" width="36" height="36" viewBox="0 0 36 36">
  <g id="Group_13861" data-name="Group 13861" transform="translate(-370 -150)">
    <g id="Ellipse_2154" data-name="Ellipse 2154" transform="translate(370 150)" fill="none" stroke="#fff" stroke-width="2">
      <circle cx="18" cy="18" r="18" stroke="none"/>
      <circle cx="18" cy="18" r="17" fill="none"/>
    </g>
    <path id="Path_44077" data-name="Path 44077" d="M2343.587-333.615v.218a1.224,1.224,0,0,1-.815.645c-.5.148-1.007.26-1.514.373-.118.027-.183.068-.208.185-.048.219-.1.438-.158.654a.429.429,0,0,1-.535.368c-.18-.017-.359-.054-.538-.085a3.227,3.227,0,0,0-2.7.572,8.877,8.877,0,0,1-.831.557,3.8,3.8,0,0,1-3.047.4,4,4,0,0,1-1.3-.644c-.16-.11-.326-.213-.476-.335a3.117,3.117,0,0,0-2.665-.563,5.418,5.418,0,0,1-.61.093.418.418,0,0,1-.481-.35,5.749,5.749,0,0,1-.146-.619c-.03-.181-.125-.237-.3-.268a12.181,12.181,0,0,1-1.416-.312,2.378,2.378,0,0,1-.712-.416.437.437,0,0,1-.155-.492c.063-.2.226-.251.407-.284a3.939,3.939,0,0,0,1.258-.461,5.868,5.868,0,0,0,2.437-2.809.582.582,0,0,0-.275-.836c-.257-.143-.549-.224-.815-.352a4.661,4.661,0,0,1-.871-.473.584.584,0,0,1,.073-1,1.015,1.015,0,0,1,.953-.109,3.544,3.544,0,0,0,.822.2c.295.03.325-.04.314-.326-.031-.805-.083-1.611-.068-2.416a4.277,4.277,0,0,1,2.219-3.753,5.6,5.6,0,0,1,4.448-.521,4.577,4.577,0,0,1,3.443,4.391c-.014.787-.048,1.574-.073,2.362-.008.237.024.294.261.264a3.2,3.2,0,0,0,.784-.2,1.1,1.1,0,0,1,1.011.067.611.611,0,0,1,.1,1.065,3.594,3.594,0,0,1-.741.412c-.274.126-.574.2-.844.335a.642.642,0,0,0-.324.98,8.959,8.959,0,0,0,.621,1.066,4.824,4.824,0,0,0,3.045,2.11A.522.522,0,0,1,2343.587-333.615Z" transform="translate(-1946.068 506.288)" fill="#fff"/>
  </g>
</svg>
