<svg xmlns="http://www.w3.org/2000/svg" width="36" height="36" viewBox="0 0 36 36">
  <g id="Group_13860" data-name="Group 13860" transform="translate(-370 -88)">
    <g id="Group_13859" data-name="Group 13859" transform="translate(180 55)">
      <g id="Ellipse_7" data-name="Ellipse 7" transform="translate(190 33)" fill="none" stroke="#fff" stroke-width="2">
        <circle cx="18" cy="18" r="18" stroke="none"/>
        <circle cx="18" cy="18" r="17" fill="none"/>
      </g>
    </g>
    <path id="Path_44076" data-name="Path 44076" d="M2247.076-391.784a3.908,3.908,0,0,1-3.484-2.607h1.481l.046-.1a3.847,3.847,0,0,1-2.85-3.636l1.534.419.067-.1a3.848,3.848,0,0,1-1.564-3.1,3.007,3.007,0,0,1,.536-1.794,10.808,10.808,0,0,0,7.689,3.872c-.012-.219-.027-.418-.034-.617a3.553,3.553,0,0,1,2.047-3.579,3.547,3.547,0,0,1,4.094.47.788.788,0,0,0,.86.173c.583-.219,1.169-.431,1.78-.656a3.789,3.789,0,0,1-1.3,1.814l.056.1,1.707-.447.071.076c-.481.489-.945,1-1.451,1.459a1.041,1.041,0,0,0-.367.807c-.208,4.505-2.188,7.934-6.369,9.79a10.39,10.39,0,0,1-9.793-.616c-.032-.018-.057-.05-.04-.035.888-.122,1.821-.188,2.723-.391A6.608,6.608,0,0,0,2247.076-391.784Z" transform="translate(-1861.965 502.448)" fill="#fff"/>
  </g>
</svg>
