<svg xmlns="http://www.w3.org/2000/svg" width="123.056" height="82.307" viewBox="0 0 123.056 82.307">
  <g id="Layer_2" data-name="Layer 2" transform="translate(0.02 0.002)">
    <g id="Layer_1" data-name="Layer 1" transform="translate(-0.02 -0.002)">
      <g id="g302">
        <g id="g36" transform="translate(0.033)">
          <rect id="rect2" width="1.376" height="1.376" transform="translate(72.47 1.492)" fill="#fff"/>
          <rect id="rect4" width="1.376" height="1.376" transform="translate(101.235 18.667)" fill="#fff"/>
          <path id="path6" d="M73.815,15.566a2.023,2.023,0,0,0,.826-.7,2.8,2.8,0,0,0,.437-1.1,6.783,6.783,0,0,0,.13-1.457V2.6H73.831v9.712a5.809,5.809,0,0,1,0,.987,1.781,1.781,0,0,1-.21.664.907.907,0,0,1-.388.356,1.619,1.619,0,0,1-.647.113h-.34l-.372-.1L71.5,15.679a4.63,4.63,0,0,0,1.133.146A2.9,2.9,0,0,0,73.815,15.566Z" transform="translate(44.238 1.612)" fill="#fff"/>
          <path id="path8" d="M71.166,1.814h-1.91V1.49a.6.6,0,0,1,.113-.4A.534.534,0,0,1,69.79.956h.955V0h-.971a1.716,1.716,0,0,0-1.23.421,1.813,1.813,0,0,0-.421,1.327V2.866h3.043Z" transform="translate(42.145 0.002)" fill="#fff"/>
          <rect id="rect10" width="1.376" height="1.376" transform="translate(98.467 18.667)" fill="#fff"/>
          <rect id="rect12" width="1.376" height="1.376" transform="translate(75.238 1.492)" fill="#fff"/>
          <path id="path14" d="M66.8,10.9a5.552,5.552,0,0,0,1.829.826,8.822,8.822,0,0,0,2.2.275h.356l.469-.987v1.376a1.829,1.829,0,0,1-.615,1.619,2.914,2.914,0,0,1-1.748.469,4.856,4.856,0,0,1-1.1-.194,7.332,7.332,0,0,1-1.182-.4l-.437,1.327a13.255,13.255,0,0,0,1.408.437,5.325,5.325,0,0,0,1.23.146,3.95,3.95,0,0,0,2.946-.955,3.545,3.545,0,0,0,.89-2.574V2.63H70.833a7.042,7.042,0,0,0-2.331.356,5.568,5.568,0,0,0-1.813.987,4.4,4.4,0,0,0-1.619,3.4,4.565,4.565,0,0,0,.453,2.088A4.127,4.127,0,0,0,66.8,10.9Zm0-4.856a3.464,3.464,0,0,1,.858-1.068,3.788,3.788,0,0,1,1.2-.68,3.885,3.885,0,0,1,1.36-.243h2.234l-.793.388v6.167H70.25a4.727,4.727,0,0,1-1.457-.21,3.674,3.674,0,0,1-1.2-.7,2.946,2.946,0,0,1-.809-1.02,3.124,3.124,0,0,1-.21-1.311,2.9,2.9,0,0,1,.227-1.36Z" transform="translate(40.26 1.63)" fill="#fff"/>
          <path id="path16" d="M47.476,15.6h2.881V14.56a1.182,1.182,0,0,0,0,.146,2.072,2.072,0,0,0,.826.712,3.237,3.237,0,0,0,1.263.227h25.3V2.7H76.354V14.269H52.575a1.457,1.457,0,0,1-.647-.113.793.793,0,0,1-.4-.356,2.007,2.007,0,0,1-.21-.664,8.353,8.353,0,0,1,0-.987V2.631H47.476A6.345,6.345,0,0,0,41,9.105h0A6.281,6.281,0,0,0,47.476,15.6ZM42.62,9.122a4.937,4.937,0,0,1,4.856-5.148h3.237l-.842.437v7.737A8,8,0,0,0,50,13.605a3.917,3.917,0,0,0,.21.7H47.476a4.986,4.986,0,0,1-4.856-5.2Z" transform="translate(25.366 1.63)" fill="#fff"/>
          <path id="polygon18" d="M40.43,12.187l.6,1.586L32.256,2.62H30.88V15.586H32.3V5.809L31.5,3.915l9.194,11.671h1.165V2.62H40.43Z" transform="translate(19.106 1.624)" fill="#fff"/>
          <path id="path20" d="M54.847,28.314l7.98-7.592V15.51h-21.4v5.925H52.354l4.112-2.606L46.349,28.994l1.085,4.4h2.881c3.869,0,6.167,1.441,6.167,4.014v.081c0,2.347-1.845,3.82-4.451,3.82a9.712,9.712,0,0,1-7.624-3.772L39.55,42.073a15.281,15.281,0,0,0,12.3,5.455c7.025,0,11.331-4.371,11.331-10.311v-.081C63.232,31.293,59.056,29.042,54.847,28.314Z" transform="translate(24.47 9.599)" fill="#fff"/>
          <path id="path22" d="M27.847,2.481a6.572,6.572,0,0,0-6.637,6.7h0a6.621,6.621,0,1,0,13.241,0h0a6.475,6.475,0,0,0-6.6-6.7ZM32.93,9.214a5.1,5.1,0,0,1-5.083,5.326,5.164,5.164,0,0,1-5.115-5.358h0a5.1,5.1,0,1,1,10.2.032Z" transform="translate(13.123 1.537)" fill="#fff"/>
          <path id="path24" d="M72.092,15.173a16.3,16.3,0,0,0-16.8,16.284v.081A16.187,16.187,0,0,0,72.011,47.726a16.3,16.3,0,0,0,16.8-16.268v-.1A16.187,16.187,0,0,0,72.092,15.173Zm9.47,16.365a9.437,9.437,0,0,1-9.47,9.809,9.567,9.567,0,0,1-9.55-9.89v-.1a9.421,9.421,0,0,1,9.469-9.793,9.567,9.567,0,0,1,9.55,9.89Z" transform="translate(34.209 9.386)" fill="#fff"/>
          <rect id="rect26" width="1.473" height="12.966" transform="translate(30.335 4.244)" fill="#fff"/>
          <path id="path28" d="M6.671,43.558l1.311-1.036,6.9-5.309c5.585-4.306,8.288-6.928,8.288-12.189v-.081c0-5.892-4.322-9.712-10.862-9.712C6.671,15.23,3.66,17.512.552,21.7l4.856,3.9c2.347-2.881,4.014-4.225,6.475-4.225a3.869,3.869,0,0,1,4.192,4.144c0,2.606-1.538,4.322-5.455,7.559L.18,41.664v5.568H23.522V41.178H11.495Z" transform="translate(0.111 9.426)" fill="#fff"/>
          <path id="polygon30" d="M6.88,15.667,12.464,2.62h-1.57L6.475,13.239l.146,1.424-.372-.874L2.428,4.546,1.635,2.62H0L5.585,15.667Z" transform="translate(0 1.624)" fill="#fff"/>
          <rect id="rect32" width="1.473" height="12.966" transform="translate(14.455 4.244)" fill="#fff"/>
          <path id="path34" d="M16.734,8.489c-2.849-.615-3.513-1.295-3.513-2.525h0c0-1.165,1.068-2.088,2.752-2.088a5.762,5.762,0,0,1,3.755,1.392l.842-1.149A6.75,6.75,0,0,0,16.005,2.5a3.836,3.836,0,0,0-4.273,3.545h0c0,2.137,1.376,3.092,4.354,3.739s3.383,1.263,3.383,2.46h0c0,1.279-1.149,2.2-2.9,2.2a6.232,6.232,0,0,1-4.435-1.732l-.906,1.068a7.592,7.592,0,0,0,5.309,2.072c2.574,0,4.435-1.441,4.435-3.658h0C20.975,10.173,19.631,9.121,16.734,8.489Z" transform="translate(6.948 1.534)" fill="#fff"/>
        </g>
        <path id="polygon38" d="M26.822,13.89l1.6,1.538-1.538,1.586L25.3,15.493Z" transform="translate(15.686 8.597)" fill="#fff"/>
        <path id="polygon40" d="M28.5,15.493l1.6,1.522,1.538-1.586-1.6-1.538Z" transform="translate(17.666 8.597)" fill="#fff"/>
        <path id="polygon42" d="M27.11,16.6l1.246,1.2,1.2-1.246-1.246-1.2Z" transform="translate(16.806 9.5)" fill="#fff"/>
        <path id="polygon44" d="M29.93,17.016l1.246,1.2,1.182-1.246-1.23-1.2Z" transform="translate(18.551 9.76)" fill="#fff"/>
        <path id="polygon46" d="M25.86,17.766l1.23,1.2,1.2-1.246-1.246-1.2Z" transform="translate(16.033 10.224)" fill="#fff"/>
        <path id="polygon48" d="M28.43,17.856l1.246,1.2,1.2-1.246-1.246-1.2Z" transform="translate(17.623 10.28)" fill="#fff"/>
        <path id="polygon50" d="M27.43,18.594l.874.842.826-.874-.858-.842Z" transform="translate(17.004 10.967)" fill="#fff"/>
        <path id="polygon52" d="M29.46,19l.874.842.842-.874L30.3,18.13Z" transform="translate(18.26 11.22)" fill="#fff"/>
        <rect id="rect54" width="2.752" height="2.752" transform="translate(54.937 23.573) rotate(-10.39)" fill="#fff"/>
        <rect id="rect56" width="2.218" height="2.218" transform="translate(51.387 24.713) rotate(-10.38)" fill="#fff"/>
        <rect id="rect58" width="2.218" height="2.218" transform="translate(55.605 27.748) rotate(-10.39)" fill="#fff"/>
        <rect id="rect60" width="1.716" height="1.716" transform="translate(52.595 28.057) rotate(-10.38)" fill="#fff"/>
        <rect id="rect62" width="1.716" height="1.716" transform="translate(55.906 31.278) rotate(-10.38)" fill="#fff"/>
        <rect id="rect64" width="1.732" height="1.716" transform="translate(50.056 28.747) rotate(-10.38)" fill="#fff"/>
        <rect id="rect66" width="1.716" height="1.716" transform="translate(53.125 30.957) rotate(-10.38)" fill="#fff"/>
        <rect id="rect68" width="1.214" height="1.214" transform="translate(50.977 31.162) rotate(-10.39)" fill="#fff"/>
        <rect id="rect70" width="1.21" height="1.21" transform="matrix(0.984, -0.181, 0.181, 0.984, 53.073, 33.486)" fill="#fff"/>
        <path id="polygon72" d="M39.352,20.05,38.17,22.543l2.493,1.182,1.182-2.493Z" transform="translate(23.649 12.408)" fill="#fff"/>
        <path id="polygon74" d="M37.085,19.34l-.955,1.991,2.007.955.939-2.007Z" transform="translate(22.387 11.969)" fill="#fff"/>
        <path id="polygon76" d="M38.1,22.37l-.955,2.007,2.007.939.939-1.991Z" transform="translate(23.012 13.844)" fill="#fff"/>
        <path id="polygon78" d="M36.395,21.45,35.65,23l1.57.745.728-1.554Z" transform="translate(22.09 13.275)" fill="#fff"/>
        <path id="polygon80" d="M36.885,24.25,36.14,25.8l1.554.745.745-1.554Z" transform="translate(22.393 15.007)" fill="#fff"/>
        <path id="polygon82" d="M34.875,20.88l-.745,1.554,1.554.745.745-1.554Z" transform="translate(21.15 12.922)" fill="#fff"/>
        <path id="polygon84" d="M35.615,23.1l-.745,1.554,1.554.745.745-1.57Z" transform="translate(21.608 14.295)" fill="#fff"/>
        <path id="polygon86" d="M34.368,22.42l-.518,1.1,1.1.518.518-1.1Z" transform="translate(20.977 13.875)" fill="#fff"/>
        <rect id="rect88" width="1.214" height="1.214" transform="translate(55.235 40.718) rotate(-64.55)" fill="#fff"/>
        <path id="polygon90" d="M40.652,27.41,38.24,28.721l1.327,2.412,2.412-1.311Z" transform="translate(23.693 16.962)" fill="#fff"/>
        <path id="polygon92" d="M39.122,25.55,37.18,26.618l1.068,1.942,1.926-1.068Z" transform="translate(23.037 15.811)" fill="#fff"/>
        <path id="polygon94" d="M38.162,28.61,36.22,29.662,37.288,31.6l1.942-1.068Z" transform="translate(22.443 17.705)" fill="#fff"/>
        <path id="polygon96" d="M37.232,26.91l-1.522.826.842,1.505,1.505-.826Z" transform="translate(22.127 16.653)" fill="#fff"/>
        <path id="polygon98" d="M35.975,29.47,34.47,30.3,35.3,31.8l1.505-.826Z" transform="translate(21.36 18.237)" fill="#fff"/>
        <path id="polygon100" d="M36.332,25.56l-1.522.826.842,1.505,1.505-.826Z" transform="translate(21.571 15.817)" fill="#fff"/>
        <path id="polygon102" d="M35.632,27.79l-1.522.826.826,1.505,1.522-.826Z" transform="translate(21.137 17.197)" fill="#fff"/>
        <path id="polygon104" d="M34.9,26.57l-1.052.583.583,1.052,1.052-.583Z" transform="translate(20.977 16.442)" fill="#fff"/>
        <path id="polygon106" d="M33.9,28.39l-1.052.583.583,1.052,1.052-.583Z" transform="translate(20.358 17.568)" fill="#fff"/>
        <rect id="rect108" width="2.752" height="2.752" transform="translate(55.374 57.198) rotate(-82.96)" fill="#fff"/>
        <rect id="rect110" width="2.201" height="2.218" transform="matrix(0.123, -0.992, 0.992, 0.123, 55.965, 53.027)" fill="#fff"/>
        <rect id="rect112" width="2.218" height="2.218" transform="matrix(0.123, -0.992, 0.992, 0.123, 51.821, 56.113)" fill="#fff"/>
        <rect id="rect114" width="1.716" height="1.716" transform="matrix(0.123, -0.992, 0.992, 0.123, 52.966, 52.749)" fill="#fff"/>
        <rect id="rect116" width="1.716" height="1.716" transform="matrix(0.123, -0.992, 0.992, 0.123, 48.89, 54.927)" fill="#fff"/>
        <rect id="rect118" width="1.716" height="1.732" transform="matrix(0.123, -0.992, 0.992, 0.123, 53.049, 50.114)" fill="#fff"/>
        <rect id="rect120" width="1.716" height="1.732" transform="matrix(0.123, -0.992, 0.992, 0.123, 50.019, 52.377)" fill="#fff"/>
        <rect id="rect122" width="1.214" height="1.214" transform="matrix(0.123, -0.992, 0.992, 0.123, 51.047, 49.812)" fill="#fff"/>
        <rect id="rect124" width="1.214" height="1.214" transform="matrix(0.123, -0.992, 0.992, 0.123, 48.008, 51.261)" fill="#fff"/>
        <path id="polygon126" d="M30.851,37.678,28.828,35.8,26.95,37.823,28.973,39.7Z" transform="translate(16.707 22.153)" fill="#fff"/>
        <path id="polygon128" d="M30.621,13.848,28.6,11.97,26.72,13.993l2.023,1.878Z" transform="translate(16.565 7.409)" fill="#fff"/>
        <path id="polygon130" d="M31.884,35.665,30.265,34.16,28.76,35.779l1.619,1.505Z" transform="translate(17.827 21.138)" fill="#fff"/>
        <path id="polygon132" d="M28.69,35.725,27.055,34.22,25.55,35.839l1.635,1.505Z" transform="translate(15.841 21.176)" fill="#fff"/>
        <path id="polygon134" d="M29.794,34.325,28.515,33.16,27.35,34.423l1.263,1.165Z" transform="translate(16.955 20.52)" fill="#fff"/>
        <path id="polygon136" d="M26.958,33.962,25.7,32.78,24.53,34.043l1.263,1.182Z" transform="translate(15.21 20.285)" fill="#fff"/>
        <path id="polygon138" d="M30.794,33.045,29.532,31.88,28.35,33.143l1.263,1.165Z" transform="translate(17.574 19.728)" fill="#fff"/>
        <path id="polygon140" d="M28.438,33.085,27.175,31.92,26.01,33.183l1.263,1.165Z" transform="translate(16.126 19.752)" fill="#fff"/>
        <path id="polygon142" d="M29.166,32.056l-.89-.826-.826.89.89.826Z" transform="translate(17.017 19.326)" fill="#fff"/>
        <path id="polygon144" d="M27.116,31.686l-.89-.826-.826.89.89.826Z" transform="translate(15.748 19.097)" fill="#fff"/>
        <rect id="rect146" width="2.752" height="2.752" transform="translate(32.523 55.386) rotate(-11.33)" fill="#fff"/>
        <rect id="rect148" width="2.218" height="2.218" transform="translate(36.689 54.606) rotate(-11.33)" fill="#fff"/>
        <rect id="rect150" width="2.218" height="2.218" transform="translate(32.426 51.656) rotate(-11.34)" fill="#fff"/>
        <rect id="rect152" width="1.716" height="1.716" transform="translate(35.992 51.684) rotate(-11.33)" fill="#fff"/>
        <rect id="rect154" width="1.716" height="1.716" transform="translate(38.535 50.956) rotate(-11.33)" fill="#fff"/>
        <rect id="rect156" width="1.716" height="1.716" transform="translate(35.418 48.779) rotate(-11.33)" fill="#fff"/>
        <rect id="rect158" width="1.214" height="1.214" transform="translate(38.177 48.937) rotate(-11.31)" fill="#fff"/>
        <rect id="rect160" width="1.214" height="1.214" transform="translate(35.843 46.537) rotate(-11.34)" fill="#fff"/>
        <path id="polygon162" d="M17.959,31.548l1.149-2.509L16.6,27.89,15.45,30.4Z" transform="translate(9.592 17.259)" fill="#fff"/>
        <path id="polygon164" d="M19.973,31.934l.923-2.007-2.023-.906-.923,2.007Z" transform="translate(11.139 17.958)" fill="#fff"/>
        <path id="polygon166" d="M18.913,28.914l.906-2.007L17.813,26l-.923,2.007Z" transform="translate(10.483 16.09)" fill="#fff"/>
        <rect id="rect168" width="1.716" height="1.716" transform="translate(30.457 45.75) rotate(-65.49)" fill="#fff"/>
        <path id="polygon170" d="M21.67,31.992l.712-1.57-1.57-.712L20.1,31.28Z" transform="translate(12.469 18.385)" fill="#fff"/>
        <rect id="rect172" width="1.716" height="1.716" transform="translate(29.605 41.226) rotate(-65.47)" fill="#fff"/>
        <rect id="rect174" width="1.716" height="1.716" transform="translate(32.953 46.639) rotate(-65.47)" fill="#fff"/>
        <rect id="rect176" width="1.716" height="1.716" transform="matrix(0.415, -0.91, 0.91, 0.415, 31.687, 43.066)" fill="#fff"/>
        <path id="polygon178" d="M22.111,28.313l.5-1.1-1.1-.5-.5,1.1Z" transform="translate(13.032 16.529)" fill="#fff"/>
        <path id="polygon180" d="M21.821,26.253l.5-1.1-1.1-.5-.5,1.1Z" transform="translate(12.853 15.254)" fill="#fff"/>
        <path id="polygon182" d="M16.576,24.245l2.4-1.376L17.6,20.49l-2.4,1.36Z" transform="translate(9.437 12.681)" fill="#fff"/>
        <path id="polygon184" d="M17.861,25.8l1.91-1.1L18.686,22.77l-1.926,1.1Z" transform="translate(10.403 14.091)" fill="#fff"/>
        <path id="polygon186" d="M18.755,22.727l1.926-1.1L19.6,19.7,17.67,20.8Z" transform="translate(10.966 12.192)" fill="#fff"/>
        <path id="polygon188" d="M19.462,24.147l1.505-.858L20.109,21.8l-1.489.858Z" transform="translate(11.553 13.491)" fill="#fff"/>
        <path id="polygon190" d="M20.678,21.567l1.489-.842-.842-1.505-1.505.858Z" transform="translate(12.296 11.895)" fill="#fff"/>
        <path id="polygon192" d="M20.4,25.487l1.489-.858-.858-1.489-1.489.842Z" transform="translate(12.123 14.32)" fill="#fff"/>
        <path id="polygon194" d="M21.058,23.237l1.505-.842-.858-1.505-1.505.858Z" transform="translate(12.531 12.928)" fill="#fff"/>
        <path id="polygon196" d="M21.519,24.191l1.052-.6-.6-1.052-1.052.6Z" transform="translate(12.976 13.949)" fill="#fff"/>
        <path id="polygon198" d="M22.489,22.351l1.052-.6-.6-1.052-1.052.6Z" transform="translate(13.577 12.81)" fill="#fff"/>
        <rect id="rect200" width="2.752" height="2.752" transform="matrix(0.106, -0.994, 0.994, 0.106, 31.739, 26.376)" fill="#fff"/>
        <rect id="rect202" width="2.201" height="2.218" transform="matrix(0.106, -0.994, 0.994, 0.106, 31.822, 30.1)" fill="#fff"/>
        <rect id="rect204" width="2.201" height="2.218" transform="matrix(0.106, -0.994, 0.994, 0.106, 35.92, 26.921)" fill="#fff"/>
        <rect id="rect206" width="1.716" height="1.716" transform="matrix(0.106, -0.994, 0.994, 0.106, 35.371, 29.889)" fill="#fff"/>
        <rect id="rect208" width="1.716" height="1.716" transform="translate(39.392 27.638) rotate(-83.91)" fill="#fff"/>
        <rect id="rect210" width="1.716" height="1.716" transform="matrix(0.106, -0.994, 0.994, 0.106, 35.317, 32.515)" fill="#fff"/>
        <rect id="rect212" width="1.716" height="1.716" transform="matrix(0.106, -0.994, 0.994, 0.106, 38.319, 30.197)" fill="#fff"/>
        <rect id="rect214" width="1.214" height="1.214" transform="matrix(0.106, -0.994, 0.994, 0.106, 37.902, 32.334)" fill="#fff"/>
        <rect id="rect216" width="1.214" height="1.214" transform="translate(40.924 30.841) rotate(-83.93)" fill="#fff"/>
        <path id="path218" d="M40,30.081a4.953,4.953,0,0,0-1.1-.486,6.7,6.7,0,0,0-3.011-.21,7.2,7.2,0,0,0-1.295.324h-.129l-.7.308-.583.324a14.567,14.567,0,0,0-1.311.906,27.907,27.907,0,0,1-.13-6.993h0c1.036.664.745,2.493.518,3.011h0a3.237,3.237,0,0,0,.4-3.642h0a3.238,3.238,0,0,1,.469.486,2.736,2.736,0,0,1,.583,1.619,3.319,3.319,0,0,1,0,.7v.194h0a3.011,3.011,0,0,0,0-2.736,3.237,3.237,0,0,0-.583-.809c-.081,0-.146-.146-.243-.21h.227a1.619,1.619,0,0,1,.583.308,2.363,2.363,0,0,1,.826,1.1,2.9,2.9,0,0,1,.194,1h0a2.525,2.525,0,0,0-.065-2.088,2.4,2.4,0,0,0-.826-.793,2.023,2.023,0,0,0-.583-.259.955.955,0,0,0-.275,0h.275a2.234,2.234,0,0,1,.583,0,2.04,2.04,0,0,1,.826.324,1.845,1.845,0,0,1,.55.583h0a1.619,1.619,0,0,0-.567-1.117,2.218,2.218,0,0,0-.826-.421,2.444,2.444,0,0,0-.583-.1,2.088,2.088,0,0,0-.728.129h0a1.392,1.392,0,0,1,.745-.518,1.473,1.473,0,0,1,.583,0,1.133,1.133,0,0,1,.486.113h0a1.619,1.619,0,0,0-.5-.4,1.311,1.311,0,0,0-.583-.194,1.473,1.473,0,0,0-1.424.7h0c0-.113-.13-.259-.194-.388a5.066,5.066,0,0,1-.324-1.068h0a4.079,4.079,0,0,1-.324,1.068,1.457,1.457,0,0,1-.194.388h0a1.505,1.505,0,0,0-2.59-.243h0A1.619,1.619,0,0,1,30,21.453h0a2.153,2.153,0,0,0-2.331.583,1.619,1.619,0,0,0-.372.923h0a1.619,1.619,0,0,1,.356-.437,2.38,2.38,0,0,1,1.878-.5h0a2.509,2.509,0,0,0-1.878,1.505,2.622,2.622,0,0,0,0,1.619h0A2.509,2.509,0,0,1,29.479,22.7h0a3.043,3.043,0,0,0-.809,3.917h0A3.076,3.076,0,0,1,29.8,23.639h0a3.237,3.237,0,0,0,.388,3.642h0c-.21-.534-.5-2.347.534-3.011h0a27.907,27.907,0,0,1-.13,6.993,10.8,10.8,0,0,0-2.59-1.538l-.324-.113a6.831,6.831,0,0,0-2.444-.34,6.345,6.345,0,0,0-2.525.631l-.243.13H22.7a7.171,7.171,0,0,1,4.969.4,13.128,13.128,0,0,1,2.914,1.91,30.5,30.5,0,0,1-2.914,2.477h-.1a.664.664,0,0,0-.7-.275.728.728,0,0,0-.518.5.68.68,0,0,0,.146.6.955.955,0,0,0,1.165.162A15.686,15.686,0,0,0,30.9,33.124l.34-.291.324.291,1.619,1.522c.194.194.4.356.583.518a6.9,6.9,0,0,0,.826.567,1.068,1.068,0,0,0,1.295,0h0a.809.809,0,0,0,.13-.6.518.518,0,0,0-.194-.324.728.728,0,0,0-.308-.178.7.7,0,0,0-.712.275l-.146-.194a7.785,7.785,0,0,1-.826-.664l-.583-.518c-.4-.372-.842-.777-1.311-1.182a11.672,11.672,0,0,1,1.311-1l.583-.372.826-.437a9.713,9.713,0,0,1,1.295-.5,7.43,7.43,0,0,1,4.1,0h0" transform="translate(13.936 12.235)" fill="#fff"/>
        <g id="g300" transform="translate(0 64.282)">
          <rect id="rect220" width="0.809" height="0.809" transform="translate(6.443 8.029)" fill="#fff"/>
          <path id="path222" d="M42.431,46.144V40.77h-.793v4.581H38.644V40.77h-.793v4.581H34.726V40.77H33.48a4.338,4.338,0,0,0-1.344.21,3.043,3.043,0,0,0-1.036.567,2.655,2.655,0,0,0-.664.858,2.558,2.558,0,0,0-.227,1.052,2.59,2.59,0,0,0,.275,1.214,2.2,2.2,0,0,0,.712.826,2.671,2.671,0,0,0,1.036.486,4.467,4.467,0,0,0,1.246.162ZM32.3,45.221a1.975,1.975,0,0,1-.68-.372,1.813,1.813,0,0,1-.469-.583,2.12,2.12,0,0,1-.162-.809,1.619,1.619,0,0,1,.178-.7,2.266,2.266,0,0,1,.486-.615,2.59,2.59,0,0,1,1.489-.518h.777v3.723h-.809A2.784,2.784,0,0,1,32.3,45.221Z" transform="translate(18.724 -39.054)" fill="#fff"/>
          <rect id="rect224" width="0.793" height="7.09" transform="translate(44.224)" fill="#fff"/>
          <rect id="rect226" width="0.809" height="0.809" transform="translate(52.609)" fill="#fff"/>
          <rect id="rect228" width="0.809" height="0.809" transform="translate(60.346 8.013)" fill="#fff"/>
          <rect id="rect230" width="0.809" height="0.809" transform="translate(7.819 8.029)" fill="#fff"/>
          <path id="path232" d="M35.212,46.007H33.917a2.493,2.493,0,0,1-1.085-.194,1.619,1.619,0,0,1-.631-.6,3.237,3.237,0,0,0,.081-.745V41.928h-.793V44.6a1.619,1.619,0,0,1-.372,1.1,1.392,1.392,0,0,1-1.1.4,1.619,1.619,0,0,1-.647-.113,1.343,1.343,0,0,1-.486-.291,1.392,1.392,0,0,1-.324-.437,1.23,1.23,0,0,1-.13-.534v-2.8h-.793v2.736a1.392,1.392,0,0,1-.113.615,1.311,1.311,0,0,1-.291.421,1.408,1.408,0,0,1-.437.227,1.618,1.618,0,0,1-.5.081H24.755V41.928h-.777v4.079h-4.16l1.376-3.237a6.85,6.85,0,0,0-.664-.534c-.243-.162-.486-.291-.728-.421a4.954,4.954,0,0,0-.777-.275,2.411,2.411,0,0,0-.761-.113,2.477,2.477,0,0,0-.761.113,4.954,4.954,0,0,0-.712.259,5.617,5.617,0,0,0-.728.421l-.664.518,1.392,3.27H14.039V41.426H12.776a4.4,4.4,0,0,0-1.344.21,3.237,3.237,0,0,0-1.02.567,2.655,2.655,0,0,0-.68.858,2.8,2.8,0,0,0,0,2.282,2.2,2.2,0,0,0,.712.826,3.027,3.027,0,0,0,1.036.469,4.662,4.662,0,0,0,1.263.162h.469v.227a1.036,1.036,0,0,1-.356.89,1.619,1.619,0,0,1-.987.259,2.72,2.72,0,0,1-.664,0,3.756,3.756,0,0,1-.664-.243l-.259.761.809.259a3.561,3.561,0,0,0,.712,0,2.218,2.218,0,0,0,1.619-.55,2.072,2.072,0,0,0,.518-1.473v-.146h12.3a2.007,2.007,0,0,0,1.036-.259,2.153,2.153,0,0,0,.728-.647,1.878,1.878,0,0,0,.777.728,2.412,2.412,0,0,0,1.182.275,2.8,2.8,0,0,0,1.214-.243,1.813,1.813,0,0,0,.761-.761,2.1,2.1,0,0,0,.243.324,1.149,1.149,0,0,0,.372.291,2.17,2.17,0,0,0,.55.21,2.882,2.882,0,0,0,.567,0h2.282V39.71h-.793v6.3Zm-22.015,0H12.4a2.784,2.784,0,0,1-.842-.129,1.943,1.943,0,0,1-.68-.356,1.619,1.619,0,0,1-.469-.583,1.732,1.732,0,0,1-.178-.793,1.816,1.816,0,0,1,.68-1.376,2.056,2.056,0,0,1,.68-.4,2.736,2.736,0,0,1,.809-.13H13.2Zm4.371,0-1.23-3.027a2.962,2.962,0,0,1,.923-.567,3.043,3.043,0,0,1,1-.178,2.784,2.784,0,0,1,1.068.21,3.415,3.415,0,0,1,.89.534l-1.246,3.027Z" transform="translate(5.904 -39.71)" fill="#fff"/>
          <rect id="rect234" width="0.809" height="0.809" transform="translate(3.724)" fill="#fff"/>
          <rect id="rect236" width="0.809" height="0.809" transform="translate(83.818)" fill="#fff"/>
          <rect id="rect238" width="0.793" height="7.09" transform="translate(76.809)" fill="#fff"/>
          <rect id="rect240" width="0.809" height="0.809" transform="translate(51.233)" fill="#fff"/>
          <path id="path242" d="M10.41,43.036a3,3,0,0,0-.129-.874,1.91,1.91,0,0,0-.372-.7,2.169,2.169,0,0,0-.712-.518,2.4,2.4,0,0,0-.955-.178H7.674v.793h.7a1.182,1.182,0,0,1,.534.13,1.279,1.279,0,0,1,.437.324,1.2,1.2,0,0,1,.227.453,2.072,2.072,0,0,1,0,.583v2.3H5.91v.793h4.5Z" transform="translate(3.69 -39.054)" fill="#fff"/>
          <rect id="rect244" width="0.793" height="7.09" transform="translate(118.685)" fill="#fff"/>
          <rect id="rect246" width="0.809" height="0.809" transform="translate(85.194)" fill="#fff"/>
          <path id="path248" d="M85.214,39.71H84.42v6.3H81.7a2.784,2.784,0,0,0,.243-1.165,2.752,2.752,0,0,0-.227-1.149,2.849,2.849,0,0,0-.6-.906,2.752,2.752,0,0,0-.923-.6,2.671,2.671,0,0,0-1.133-.227,2.557,2.557,0,0,0-1.117.227,2.655,2.655,0,0,0-.89.615,2.849,2.849,0,0,0-.6.906,2.946,2.946,0,0,0-.227,1.133,3.4,3.4,0,0,0,0,.6,2.9,2.9,0,0,0,.178.567H74.077a2.558,2.558,0,0,0,.259-1.165,3.027,3.027,0,0,0-.227-1.149,2.9,2.9,0,0,0-.615-.906,2.687,2.687,0,0,0-.906-.6,2.752,2.752,0,0,0-1.149-.227,2.525,2.525,0,0,0-1.1.227,2.719,2.719,0,0,0-.906.615,3.238,3.238,0,0,0-.6.906,2.946,2.946,0,0,0-.21,1.133,2.347,2.347,0,0,0,0,.6,2.1,2.1,0,0,0,.178.567H66.275v-6.3h-.793v6.3H62.956V44.793a2.963,2.963,0,0,0-.113-.858,1.91,1.91,0,0,0-.372-.7,2.121,2.121,0,0,0-.7-.518,2.477,2.477,0,0,0-.987-.162h-3.5L58.78,39.71h-.89l-1.522,2.833A1.619,1.619,0,0,0,56.5,43a1.133,1.133,0,0,0,.227.34h4.031a1.618,1.618,0,0,1,.664.13,1.068,1.068,0,0,1,.437.308,1.085,1.085,0,0,1,.227.453,2.964,2.964,0,0,1,0,.567v1.214H54.846V41.426H53.6a4.338,4.338,0,0,0-1.344.21,3.043,3.043,0,0,0-1.036.567,2.412,2.412,0,0,0-.647.858,2.331,2.331,0,0,0-.243,1.052,2.59,2.59,0,0,0,.275,1.214,2.2,2.2,0,0,0,.712.826,2.671,2.671,0,0,0,1.036.486A4.467,4.467,0,0,0,53.6,46.8H69.3a2.882,2.882,0,0,0,.923.647,2.7,2.7,0,0,0,1.149.243,3.14,3.14,0,0,0,1.182-.227,3.059,3.059,0,0,0,.955-.664h3.48a2.994,2.994,0,0,0,.906.647,2.784,2.784,0,0,0,1.165.243,3.238,3.238,0,0,0,1.182-.227,3,3,0,0,0,.939-.664h4.031V39.71Zm-31.16,6.3h-.777a2.784,2.784,0,0,1-.842-.129,1.975,1.975,0,0,1-.68-.372,1.813,1.813,0,0,1-.469-.583,2.121,2.121,0,0,1-.162-.809,1.829,1.829,0,0,1,.178-.777,2.46,2.46,0,0,1,.486-.6,2.655,2.655,0,0,1,.7-.388,2.622,2.622,0,0,1,.793-.13h.777v3.788Zm19.263-.356a1.942,1.942,0,0,1-.453.664,1.861,1.861,0,0,1-.664.421,2.023,2.023,0,0,1-.826.162,1.894,1.894,0,0,1-1.441-.615,1.991,1.991,0,0,1-.437-.647,2.25,2.25,0,0,1-.146-.809,2.153,2.153,0,0,1,.146-.793,2.121,2.121,0,0,1,.421-.664,1.862,1.862,0,0,1,.648-.453,1.91,1.91,0,0,1,.809-.162,2.364,2.364,0,0,1,.842.146,2.623,2.623,0,0,1,.664.437,2.363,2.363,0,0,1,.437.664,2.266,2.266,0,0,1,.162.826,2.2,2.2,0,0,1-.162.826Zm7.673,0a2.152,2.152,0,0,1-.437.664,2.2,2.2,0,0,1-.664.421,2.023,2.023,0,0,1-.826.162,1.91,1.91,0,0,1-.809-.162,1.862,1.862,0,0,1-.647-.453,2.121,2.121,0,0,1-.583-1.457,2.2,2.2,0,0,1,.583-1.457,1.959,1.959,0,0,1,.631-.453,1.926,1.926,0,0,1,.826-.162,2.266,2.266,0,0,1,.826.146,2.153,2.153,0,0,1,.664.518,1.829,1.829,0,0,1,.437.664,1.975,1.975,0,0,1,.162.826,1.927,1.927,0,0,1-.162.745Z" transform="translate(31.173 -39.71)" fill="#fff"/>
          <path id="path250" d="M2.036,46a4.467,4.467,0,0,0,1.246.162h5.18V40.77H7.669v4.581H4.529V40.77H3.25a4.338,4.338,0,0,0-1.344.21,3.043,3.043,0,0,0-1.036.567,2.655,2.655,0,0,0-.664.858A2.558,2.558,0,0,0-.02,43.457a2.59,2.59,0,0,0,.275,1.214,2.2,2.2,0,0,0,.712.826,2.671,2.671,0,0,0,1.068.5ZM.806,43.457a1.829,1.829,0,0,1,.178-.7,2.46,2.46,0,0,1,.486-.6,2.654,2.654,0,0,1,.7-.388,2.622,2.622,0,0,1,.793-.13h.777v3.707H2.959a2.784,2.784,0,0,1-.842-.129,1.975,1.975,0,0,1-.68-.372,1.813,1.813,0,0,1-.469-.583A1.861,1.861,0,0,1,.806,43.457Z" transform="translate(0.02 -39.054)" fill="#fff"/>
          <rect id="rect252" width="0.809" height="0.809" transform="translate(57.449 8.029)" fill="#fff"/>
          <rect id="rect254" width="0.809" height="0.809" transform="translate(56.073 8.029)" fill="#fff"/>
          <path id="path256" d="M40.44,47.8a4.5,4.5,0,0,0,.081-.842V46.8H50.7V39.71h-.793v6.3H46.542l1.392-3.237a5.488,5.488,0,0,0-.68-.534,7.819,7.819,0,0,0-.728-.421,4.274,4.274,0,0,0-.68-.34,2.665,2.665,0,0,0-1.538,0,4.856,4.856,0,0,0-.761.275,4.064,4.064,0,0,0-.728.421,5.327,5.327,0,0,0-.664.534l1.392,3.237H40.521V41.426h-.793v5.536a5.113,5.113,0,0,1,0,.567,1.279,1.279,0,0,1-.113.372.5.5,0,0,1-.243.21.745.745,0,0,1-.356,0h-.421l-.194.761a2.816,2.816,0,0,0,.631,0,1.619,1.619,0,0,0,.728-.146,1.084,1.084,0,0,0,.469-.388,1.829,1.829,0,0,0,.21-.534Zm2.622-4.856A3.027,3.027,0,0,1,44,42.381a2.978,2.978,0,0,1,1-.178,2.655,2.655,0,0,1,1.052.21,3.238,3.238,0,0,1,.89.534l-1.23,3.027H44.227Z" transform="translate(23.792 -39.71)" fill="#fff"/>
          <rect id="rect258" width="0.809" height="0.809" transform="translate(2.348)" fill="#fff"/>
          <path id="polygon260" d="M5.385,47.3H4.154L1.467,50.133V47.3H.48v5.633h.987V51.3l.89-.906,1.926,2.541h1.2L3.038,49.728Z" transform="translate(0.33 -35.014)" fill="#fff"/>
          <rect id="rect262" width="0.987" height="5.649" transform="translate(6.718 12.286)" fill="#fff"/>
          <path id="polygon264" d="M9.64,51.2,6.613,47.3H5.69v5.633h.987V48.919l3.108,4.014h.842V47.3H9.64Z" transform="translate(3.553 -35.014)" fill="#fff"/>
          <path id="path266" d="M12.382,50.708h1.441v1.02a2.266,2.266,0,0,1-1.36.421,1.878,1.878,0,0,1-1.926-2.04h0a1.91,1.91,0,0,1,1.845-1.991,2.185,2.185,0,0,1,1.619.6l.631-.745a3.076,3.076,0,0,0-2.169-.761,2.865,2.865,0,0,0-2.962,2.9h0a2.8,2.8,0,0,0,2.93,2.9,3.675,3.675,0,0,0,2.363-.874V49.85H12.382Z" transform="translate(5.91 -35.071)" fill="#fff"/>
          <path id="path268" d="M15.731,47.3H13.61v5.633h2.121a2.817,2.817,0,0,0,2.995-2.881h0A2.8,2.8,0,0,0,15.731,47.3Zm1.959,2.833a1.845,1.845,0,0,1-1.959,1.91H14.614V48.193h1.117a1.862,1.862,0,0,1,1.959,1.862Z" transform="translate(8.454 -35.017)" fill="#fff"/>
          <path id="path270" d="M20.312,47.24a2.9,2.9,0,0,0-2.962,2.849h0a2.962,2.962,0,0,0,5.908,0h0a2.865,2.865,0,0,0-2.946-2.849Zm1.91,2.93a1.91,1.91,0,0,1-1.91,1.991,1.942,1.942,0,0,1-1.91-2.072h0a1.91,1.91,0,0,1,1.91-1.991,1.942,1.942,0,0,1,1.91,1.991Z" transform="translate(10.768 -35.051)" fill="#fff"/>
          <path id="polygon272" d="M24.538,49.971,22.822,47.3H21.77v5.633h.971V48.9l1.764,2.655h.032l1.8-2.671v4.047h.987V47.3H26.27Z" transform="translate(13.502 -35.014)" fill="#fff"/>
          <path id="path274" d="M30.4,47.241A2.9,2.9,0,0,0,27.44,50.09h0a2.865,2.865,0,0,0,2.946,2.9,2.9,2.9,0,0,0,2.978-2.9h0A2.865,2.865,0,0,0,30.4,47.241Zm1.91,2.93a1.914,1.914,0,1,1-3.82-.081h0A1.894,1.894,0,0,1,30.386,48.1a1.926,1.926,0,0,1,1.926,1.991Z" transform="translate(17.01 -35.052)" fill="#fff"/>
          <path id="polygon276" d="M31.86,52.933h.987v-2.3H35.7v-.89H32.847V48.19h3.221V47.3H31.86Z" transform="translate(19.745 -35.014)" fill="#fff"/>
          <path id="path278" d="M38.947,49.692c-1.085-.259-1.344-.453-1.344-.89h0c0-.372.34-.664.923-.664a2.541,2.541,0,0,1,1.619.583l.534-.761a3.237,3.237,0,0,0-2.056-.7A1.732,1.732,0,0,0,36.7,48.883h0c0,1.036.68,1.392,1.878,1.619s1.279.453,1.279.858h0c0,.437-.389.712-1,.712a2.558,2.558,0,0,1-1.781-.728l-.6.712a3.48,3.48,0,0,0,2.347.89c1.2,0,2.023-.631,2.023-1.619h0C40.727,50.4,40.112,49.984,38.947,49.692Z" transform="translate(22.598 -35.043)" fill="#fff"/>
          <path id="path280" d="M41.947,47.27,39.47,52.952h1.02l.567-1.36h2.687l.567,1.36h1.052L42.869,47.27Zm-.518,3.448.971-2.266.971,2.266Z" transform="translate(24.454 -35.032)" fill="#fff"/>
          <path id="path282" d="M47.309,50.556c0,1.052-.55,1.619-1.424,1.619s-1.441-.567-1.441-1.619V47.319h-.987v3.237a2.234,2.234,0,0,0,2.412,2.493A2.266,2.266,0,0,0,48.3,50.507V47.27h-.987v3.286Z" transform="translate(26.91 -35.032)" fill="#fff"/>
          <path id="path284" d="M49.444,47.3h-2.1v5.633h2.1a2.833,2.833,0,0,0,3.011-2.881h0A2.817,2.817,0,0,0,49.444,47.3ZM51.4,50.135a1.845,1.845,0,0,1-1.959,1.91H48.408V48.193h1.117A1.845,1.845,0,0,1,51.4,50.054Z" transform="translate(29.323 -35.017)" fill="#fff"/>
          <rect id="rect286" width="0.987" height="5.649" transform="translate(83.041 12.286)" fill="#fff"/>
          <path id="path288" d="M56.525,47.27,54,52.952h1.02l.583-1.36h2.671l.583,1.36h1.052L57.415,47.27Zm-.534,3.448.971-2.266.987,2.266Z" transform="translate(33.444 -35.032)" fill="#fff"/>
          <path id="path290" d="M62.863,49.092h0a1.619,1.619,0,0,0-.469-1.23,2.331,2.331,0,0,0-1.619-.55H58.25v5.633h.987V50.969h1.246l1.392,1.959h1.165L61.52,50.791A1.619,1.619,0,0,0,62.863,49.092Zm-3.626.955V48.185h1.441c.745,0,1.182.34,1.182.939h0c0,.583-.453.939-1.165.939Z" transform="translate(36.073 -35.009)" fill="#fff"/>
          <path id="path292" d="M64.153,47.27,61.66,52.952h1.02l.583-1.36h2.671l.583,1.36h1.052L65.075,47.27Zm-.534,3.448.971-2.266.987,2.266Z" transform="translate(38.183 -35.032)" fill="#fff"/>
          <path id="path294" d="M69.467,50.029a1.344,1.344,0,0,0,.809-1.263h0a1.263,1.263,0,0,0-.372-.923,2.072,2.072,0,0,0-1.489-.5H65.89v5.633H68.5c1.263,0,2.1-.534,2.1-1.619h0A1.392,1.392,0,0,0,69.467,50.029ZM66.861,48.2h1.424c.647,0,1,.275,1,.712h0c0,.518-.437.777-1.068.777h-1.36V48.183ZM69.6,51.307c0,.518-.4.777-1.085.777H66.894V50.466h1.619c.793,0,1.165.291,1.165.761Z" transform="translate(40.8 -34.991)" fill="#fff"/>
          <rect id="rect296" width="0.987" height="5.649" transform="translate(112.631 12.286)" fill="#fff"/>
          <path id="path298" d="M74.159,47.27h-.923L70.76,52.952h1l.583-1.36h2.687l.567,1.36h1.052Zm-1.392,3.448.971-2.266.971,2.266Z" transform="translate(43.813 -35.032)" fill="#fff"/>
        </g>
      </g>
    </g>
  </g>
</svg>
